<svg width="359" height="295" viewBox="0 0 359 295" fill="none" xmlns="http://www.w3.org/2000/svg">
<path fill-rule="evenodd" clip-rule="evenodd" d="M163.689 295.923C155.808 295.949 148.15 296.219 140.246 296.245C108.118 296.354 75.6954 296.198 43.4514 294.889C34.338 294.519 32.0632 294.529 22.9892 293.955C17.6314 293.934 1.53798 293.489 2.34365 286.157C2.6993 272.504 6.06432 258.905 7.12426 245.287C9.15845 219.688 10.8906 193.286 21.1051 169.342C23.4694 163.624 28.5471 159.884 33.5738 156.522C38.6146 152.894 39.8517 148.866 44.5043 144.768C45.4879 143.902 51.0742 143.549 54.08 141.351C58.4546 138.152 60.6242 132.914 62.2566 132.023C63.4575 131.367 63.4355 126.841 65.8429 125.239C69.0732 123.089 79.3673 121.49 83.1126 121.192C86.7073 120.904 92.9597 121.507 96.3325 122.83C101.957 125.035 104.2 129.242 106.677 134.662C139.402 144.823 169.313 162.029 178.602 196.735C186.613 225.843 186.906 257.05 183.81 286.903C183.192 289.085 183.625 292.506 181.749 293.955C188.273 294.331 164.574 295.683 163.689 295.923Z" fill="white"/>
<path fill-rule="evenodd" clip-rule="evenodd" d="M14.8455 267.183C15.4648 266.872 16.1103 266.517 16.8176 266.491C18.0321 266.449 18.0337 264.551 16.8176 264.594C15.7567 264.631 14.8251 265.076 13.8918 265.544C12.8026 266.089 13.7607 267.726 14.8455 267.183ZM16.8176 213.747C15.9888 213.747 15.1534 213.853 14.5167 214.435C14.1384 214.781 14.1683 215.427 14.5167 215.777C14.8897 216.152 15.476 216.123 15.8532 215.777C15.73 215.89 15.852 215.778 15.8965 215.753C15.9073 215.748 15.9131 215.744 15.9159 215.741C15.9253 215.739 15.9349 215.737 15.9501 215.733C16.0489 215.708 16.1466 215.683 16.2463 215.665C16.2479 215.67 16.4573 215.651 16.5064 215.649C16.6104 215.646 16.7139 215.645 16.8176 215.645C17.3301 215.645 17.7623 215.211 17.7623 214.696C17.7623 214.183 17.3283 213.747 16.8176 213.747ZM25.7022 235.042C25.9728 236.234 27.7942 235.726 27.5242 234.536C27.1316 232.808 27.2032 231.035 27.5242 229.299C27.7453 228.105 25.9239 227.597 25.7022 228.796C25.317 230.877 25.2309 232.965 25.7022 235.042ZM28.0887 166.815C29.4959 166.479 30.8878 166.439 32.3273 166.438C33.5451 166.438 33.5432 164.54 32.3273 164.54C30.7218 164.541 29.1545 164.61 27.5863 164.984C26.402 165.267 26.9066 167.097 28.0887 166.815ZM32.804 213.055C33.6202 212.645 34.4367 212.235 35.2529 211.825C36.3421 211.278 35.384 209.641 34.2992 210.186L31.8504 211.416C30.7614 211.963 31.7195 213.6 32.804 213.055ZM33.144 250.44C34.1794 251.94 35.635 252.871 37.3819 253.337C38.5605 253.65 39.0588 251.818 37.8843 251.505C36.635 251.173 35.5252 250.567 34.7757 249.483C34.0866 248.483 32.4493 249.433 33.144 250.44ZM39.6731 183.601C39.9534 183.075 40.3751 182.853 40.8984 182.841C42.1143 182.813 42.1145 180.915 40.8984 180.943C39.7057 180.97 38.6118 181.571 38.0419 182.643C37.468 183.721 39.1 184.679 39.6731 183.601ZM51.6584 196.505C51.9972 196.875 52.654 196.866 52.9946 196.505C53.2032 196.284 53.3784 196.036 53.5163 195.766C53.5687 195.663 53.6181 195.558 53.6757 195.458C53.7015 195.414 53.7301 195.37 53.7593 195.327C53.7694 195.318 53.7898 195.297 53.8111 195.274C54.1742 194.889 54.1648 194.32 53.8111 193.932C53.4723 193.561 52.8153 193.571 52.4746 193.932C52.2665 194.153 52.0909 194.4 51.9532 194.671C51.9007 194.774 51.8513 194.878 51.7935 194.979C51.7677 195.023 51.7392 195.067 51.7099 195.11C51.7001 195.118 51.6797 195.14 51.6584 195.162C51.2953 195.548 51.3044 196.117 51.6584 196.505ZM52.6661 224.538C53.8965 225.102 55.2463 225.102 56.477 224.538C56.9429 224.324 57.0534 223.646 56.8155 223.237C56.5402 222.764 55.9867 222.685 55.5231 222.898C54.9649 223.155 54.177 223.155 53.6195 222.898C53.1538 222.685 52.6057 222.76 52.3271 223.237C52.0878 223.649 52.2018 224.324 52.6661 224.538ZM56.0227 244.38C56.2341 244.881 56.6907 245.149 57.2246 245.17C57.7532 245.189 58.1471 244.718 58.1693 244.22C58.1833 243.898 58.0103 243.623 57.7617 243.453C57.7612 243.435 57.7607 243.418 57.7607 243.399C57.7605 242.868 57.328 242.473 56.816 242.452C56.306 242.428 55.871 242.903 55.8712 243.399C55.8715 243.735 55.8921 244.067 56.0227 244.38ZM60.8977 275.923C62.4058 275.947 63.8792 276.309 65.3873 276.333C66.6057 276.354 66.602 274.456 65.3873 274.435C63.8794 274.411 62.406 274.049 60.8977 274.026C59.6792 274.005 59.683 275.905 60.8977 275.923ZM67.1684 154.269C68.0511 155.114 69.1414 155.53 70.2166 156.058C71.3058 156.592 72.2627 154.955 71.1702 154.418C70.2594 153.971 69.2513 153.641 68.5044 152.927C67.6233 152.083 66.2857 153.425 67.1684 154.269ZM69.5376 176.15C70.1571 175.84 70.8026 175.485 71.5095 175.46C72.7242 175.417 72.7258 173.519 71.5095 173.562C70.4489 173.598 69.5175 174.043 68.584 174.511C67.4943 175.057 68.4526 176.694 69.5376 176.15ZM80.8968 263.973C81.1763 263.446 81.598 263.223 82.1213 263.211C83.3376 263.185 83.3381 261.285 82.1213 261.313C80.9286 261.341 79.8347 261.943 79.2648 263.013C78.6914 264.093 80.3229 265.05 80.8968 263.973ZM84.8303 222.748C85.2063 222.402 85.1801 221.758 84.8303 221.405C84.4222 220.996 84.0141 220.586 83.6057 220.176C83.2325 219.801 82.6469 219.828 82.2698 220.176C81.8937 220.522 81.92 221.165 82.2698 221.518C82.6781 221.927 83.086 222.339 83.4943 222.748C83.8677 223.124 84.4531 223.096 84.8303 222.748ZM89.4683 286.994C90.8315 286.964 92.1094 286.571 93.3929 286.141C94.5428 285.757 94.0469 283.923 92.8904 284.311C91.7748 284.683 90.6542 285.069 89.4683 285.097C88.2522 285.125 88.2517 287.023 89.4683 286.994ZM95.5905 246.4C96.8221 246.365 97.8436 245.734 98.7076 244.89C99.5812 244.039 98.2435 242.696 97.3714 243.55C96.8769 244.032 96.3065 244.481 95.5905 244.502C94.3749 244.535 94.374 246.433 95.5905 246.4ZM91.7888 194.193C91.7739 194.699 91.5613 195.24 91.2492 195.572C90.414 196.461 91.7486 197.805 92.5851 196.915C93.2754 196.181 93.6493 195.198 93.6783 194.193C93.7132 192.969 91.8235 192.974 91.7888 194.193ZM106.202 152.847C106.597 152.069 107.115 151.157 107.904 150.727C108.974 150.143 108.019 148.505 106.95 149.088C105.879 149.672 105.112 150.823 104.57 151.888C104.017 152.975 105.649 153.935 106.202 152.847ZM108.651 172.589C109.089 172.577 109.525 172.501 109.947 172.386C110.128 172.337 110.307 172.28 110.488 172.231C110.565 172.21 110.894 172.168 110.692 172.179C111.204 172.152 111.637 171.767 111.637 171.23C111.637 170.737 111.202 170.253 110.692 170.281C109.991 170.319 109.353 170.671 108.651 170.691C107.436 170.725 107.435 172.624 108.651 172.589ZM114.773 202.933H116.814C118.032 202.933 118.03 201.035 116.814 201.035H114.773C113.556 201.035 113.558 202.933 114.773 202.933ZM117.154 286.865C117.773 287.175 118.502 287.472 119.003 287.947C119.887 288.786 121.225 287.446 120.34 286.604C119.701 285.997 118.885 285.616 118.108 285.226C117.649 284.996 117.086 285.099 116.815 285.567C116.569 285.988 116.698 286.637 117.154 286.865ZM121.714 262.879C121.793 262.856 121.876 262.842 121.957 262.83C122.278 262.788 122.614 262.802 122.937 262.802C124.154 262.802 124.152 260.902 122.937 260.904C121.978 260.904 120.981 260.918 120.228 261.591C119.845 261.934 119.882 262.588 120.228 262.933C120.603 263.312 121.183 263.274 121.564 262.933C121.524 262.971 121.661 262.893 121.714 262.879ZM122.936 230.619C122.661 230.05 122.657 229.68 122.657 229.048C122.656 227.825 120.766 227.827 120.767 229.048C120.768 229.965 120.904 230.746 121.304 231.578C121.528 232.041 122.183 232.161 122.597 231.919C123.061 231.646 123.158 231.079 122.936 230.619ZM128.4 186.087C129.495 186.462 130.474 186.992 131.439 187.632C132.458 188.307 133.403 186.663 132.393 185.993C131.291 185.263 130.152 184.684 128.902 184.257C127.746 183.862 127.254 185.696 128.4 186.087ZM134.773 154.137C135.587 154.16 136.427 154.473 137.153 154.828C138.244 155.359 139.2 153.722 138.107 153.188C137.07 152.682 135.936 152.271 134.773 152.238C133.554 152.204 133.559 154.103 134.773 154.137ZM137.63 239.427C137.95 239.444 138.224 239.27 138.394 239.018C138.411 239.018 138.429 239.018 138.446 239.018C138.976 239.018 139.368 238.583 139.391 238.068C139.414 237.558 138.94 237.121 138.446 237.121C138.113 237.121 137.782 237.142 137.472 237.271C136.971 237.485 136.706 237.944 136.685 238.48C136.665 239.011 137.134 239.406 137.63 239.427ZM142.277 173.786C143.437 174.167 143.93 172.333 142.779 171.955C141.428 171.512 140.048 171.168 138.697 170.725C137.537 170.344 137.044 172.178 138.195 172.556C139.546 172.999 140.926 173.342 142.277 173.786ZM146.514 209.618C146.874 210.783 148.698 210.283 148.337 209.113C147.988 207.984 147.963 206.848 147.962 205.675C147.961 204.451 146.072 204.453 146.073 205.675C146.073 207.01 146.118 208.333 146.514 209.618ZM159.148 252.535C159.217 253.008 159.59 253.349 160.078 253.37C160.575 253.393 161.041 252.918 161.023 252.422C160.988 251.465 160.213 250.687 159.262 250.651C158.733 250.633 158.339 251.103 158.317 251.601C158.295 252.086 158.698 252.464 159.148 252.535ZM165.541 197.979C166.54 198.314 167.606 198.632 168.389 199.375C169.274 200.214 170.612 198.873 169.725 198.033C168.693 197.054 167.366 196.592 166.043 196.148C164.886 195.76 164.394 197.594 165.541 197.979ZM169.874 234.858C170.149 235.329 170.705 235.413 171.167 235.199C171.787 234.908 172.471 234.92 173.139 234.917C174.357 234.917 174.355 233.02 173.139 233.02C172.108 233.02 171.157 233.118 170.213 233.558C169.748 233.777 169.635 234.447 169.874 234.858ZM172.323 279.613C172.852 279.634 173.245 279.164 173.267 278.665C173.289 278.181 172.887 277.802 172.437 277.732C172.368 277.259 171.995 276.918 171.507 276.895C171.009 276.873 170.544 277.348 170.562 277.845C170.596 278.799 171.371 279.58 172.323 279.613ZM0.175121 286.792C0.496123 285.631 1.23085 284.695 1.78575 283.651C1.97189 283.298 2.03675 283.079 2.13766 282.823C2.27463 283.098 2.54061 283.305 2.94028 283.305C3.70755 283.305 4.60476 283.255 5.32075 283.585C5.78622 283.799 6.3348 283.723 6.61319 283.244C6.85248 282.832 6.73822 282.16 6.2744 281.946C5.21914 281.461 4.08498 281.407 2.94028 281.405C2.65768 281.405 2.44368 281.511 2.29242 281.668C1.85506 275.651 1.86583 269.628 2.27978 263.606C2.72113 257.17 3.73705 250.863 4.80003 244.509C5.31467 241.429 5.98313 238.318 5.85318 235.181C5.72324 232.065 4.39357 229.161 5.33597 226.035C5.71387 224.782 6.36103 223.635 6.78154 222.395C7.23249 221.062 7.19245 219.745 6.98688 218.364C6.56426 215.552 5.86278 212.773 6.98477 210.027C7.48067 208.81 8.284 207.723 8.67103 206.465C9.15288 204.902 9.08662 203.172 9.16716 201.551C9.33012 198.281 9.3725 194.989 9.64199 191.727C9.76234 190.265 10.0243 188.879 10.6221 187.538C11.1962 186.247 12.0487 185.073 12.4289 183.703C12.8068 182.356 12.8398 180.934 13.0431 179.555C13.2557 178.098 13.5886 176.663 14.0375 175.263C15.7712 169.843 18.948 164.973 22.7012 160.752C26.6907 156.264 31.4594 152.885 36.5212 149.736C39.1829 148.08 41.8443 146.424 44.5041 144.768C44.561 145.079 44.7581 145.364 45.1367 145.492C46.1356 145.827 47.2021 146.145 47.985 146.888C48.8694 147.726 50.2075 146.386 49.3212 145.546C48.3969 144.669 47.2348 144.207 46.0525 143.801C47.2643 143.034 48.4894 142.239 49.857 141.796C51.0548 141.407 52.8211 141.746 53.7923 140.863C54.5549 140.168 54.7961 138.88 55.0888 137.935C55.4549 136.763 55.7713 135.527 56.2367 134.387C56.5533 133.609 57.0138 132.862 57.5947 132.259C57.8499 131.272 58.3177 130.37 59.1445 129.822C61.3079 128.384 63.9651 129.812 64.9169 131.863C65.7036 131.86 66.5324 132.033 67.2978 132.081C68.871 132.181 70.4463 132.226 72.0218 132.221C75.1042 132.211 78.189 132.01 81.2454 131.599C86.7109 130.863 92.0136 129.38 97.3871 128.225C97.4177 128.154 97.4533 128.082 97.4957 128.011C98.6533 126.061 101.537 126.39 103.354 127.128C104.133 127.444 104.927 127.843 105.373 128.583C105.846 128.903 106.254 129.293 106.526 129.703C107.088 130.55 107.522 132.259 108.663 132.401C109.414 132.494 110.177 132.349 110.94 132.458C111.894 132.591 112.75 132.928 113.631 133.313C120.339 136.238 127.273 139.492 134.553 140.626C136.261 140.892 137.999 141.167 139.482 142.128C140.687 142.909 141.618 143.982 142.612 144.999C143.58 145.992 144.379 146.43 145.761 146.608C147.438 146.825 148.89 147.289 150.116 148.514C151.134 149.532 151.798 150.832 152.596 152.014C153.409 153.22 154.602 153.898 155.839 154.598C158.766 156.255 161.491 158.255 163.865 160.654C168.865 165.714 171.894 172.216 174.945 178.552C178.245 185.405 181.33 192.341 183.469 199.66C185.566 206.845 186.814 214.237 187.39 221.697C187.997 229.527 188.083 237.386 188.589 245.219C188.84 249.132 189.032 253.05 189.226 256.965C189.416 260.834 189.692 264.709 189.647 268.582C189.561 276.069 188.072 283.58 185.466 290.59C184.815 292.332 184.096 294.054 183.328 295.747C182.654 297.235 180.352 297.068 179.629 295.747C179.464 295.444 179.334 295.131 179.225 294.813C177.336 294.83 175.427 294.682 173.549 294.858C170.233 295.168 166.91 295.342 163.584 295.549C157.004 295.958 150.411 296.231 143.828 296.61C143.19 296.645 142.551 296.683 141.913 296.72C146.604 282.134 145.995 266.362 146.738 251.192C146.798 249.967 144.907 249.974 144.848 251.192C144.103 266.428 144.737 282.24 139.88 296.85C137.996 296.979 136.114 297.134 134.239 297.365C132.723 297.546 131.199 297.762 129.668 297.687C127.932 297.605 126.237 297.205 124.543 296.859C121.465 296.229 118.501 296.513 115.411 296.901C112.107 297.315 108.791 297.546 105.465 297.692C92.1482 298.277 78.7415 298.811 65.4294 297.917C62.2077 297.701 58.993 297.398 55.7926 296.984C52.4952 296.56 49.2334 295.846 45.9387 295.439C42.6909 295.041 39.7052 296.135 36.4952 296.337C33.2217 296.542 29.8605 295.857 26.6174 295.462C25.5594 295.333 24.5003 295.208 23.4411 295.084C24.8047 285.694 25.5802 276.231 26.3334 266.774C26.4306 265.553 24.5402 265.565 24.4439 266.774C23.6968 276.159 22.9387 285.548 21.5769 294.865C15.9614 294.209 10.3402 293.546 4.78318 292.523C3.20064 292.234 1.62771 291.761 0.68039 290.343C-0.0208513 289.292 -0.16274 288.003 0.175121 286.792Z" fill="black"/>
<path fill-rule="evenodd" clip-rule="evenodd" d="M42.6105 87.6339C43.1191 83.1453 42.4611 73.7633 42.4169 73.1933C42.1383 69.59 43.8187 55.3606 46.9957 56.6716C52.3249 52.4332 59.4228 51.4973 66.0598 51.0503C79.8463 50.1214 94.5124 52.2535 105.158 61.5748C110.423 66.4155 115.548 73.456 115.136 80.7867C119.919 87.7355 126.662 97.2672 120.703 105.391C118.677 107.986 115.457 108.952 112.912 110.918C107.793 115.066 104.582 121.019 99.4146 125.142C85.7246 137.502 62.4785 140.084 49.028 126.026C38.6269 115.845 40.3087 100.613 42.1383 87.6339C43.3682 78.9078 41.6187 96.3905 42.6105 87.6339Z" fill="white"/>
<path fill-rule="evenodd" clip-rule="evenodd" d="M84.4767 32.0158C80.7895 31.2682 77.0035 30.8031 73.2383 30.943L72.948 30.9545C70.1149 31.0681 66.5273 31.3197 64.0559 32.975C63.9136 32.8315 63.6851 32.7579 63.4776 32.8574C60.5408 34.2657 57.3104 35.2842 54.2182 36.2958C51.14 37.3027 47.9466 37.9675 44.7204 38.2354C43.5066 38.3362 42.4678 39.6531 43.2364 40.8341C43.4193 41.1155 43.5972 41.3998 43.7747 41.6848C43.4781 41.6538 43.1814 41.6216 42.8848 41.5915C41.9084 41.4927 40.9332 42.5396 40.9911 43.4946C41.0274 44.0952 41.0917 44.6885 41.1873 45.2749C40.8155 45.2672 40.4458 45.3231 40.0887 45.4748C38.2802 46.2419 38.4062 48.406 38.5415 50.0523C38.7291 52.3371 39.5797 54.7571 41.1587 56.4671C39.9796 57.6974 39.1449 59.1669 38.6471 60.912C38.2858 62.1863 38.085 63.5436 38.1842 64.8701L38.2158 65.2673C38.3385 66.7069 38.5823 68.3005 39.6132 69.3361C40.1423 69.8702 40.7942 70.0646 41.4156 70.003C41.0398 73.3203 40.7988 76.6569 40.5722 79.9816L40.4657 81.5705C39.9599 89.2544 39.5799 96.9881 39.6792 104.684C39.7717 111.877 41.1861 118.859 45.5771 124.699C49.5762 130.016 55.3179 133.937 61.8134 135.427C65.314 136.232 68.8876 136.288 72.4306 135.776C74.148 135.527 75.8766 135.145 77.5067 134.542C79.3109 133.873 80.6078 132.888 81.8218 131.412C82.3959 130.712 82.1196 129.222 80.9761 129.362C79.247 129.572 77.6682 129.826 76.0103 130.34L75.7729 130.415C74.1217 130.947 72.4116 131.343 70.6853 131.512C67.1491 131.856 63.5591 131.509 60.1718 130.432C54.6565 128.676 49.9065 124.763 46.8621 119.846C43.2482 114.018 42.8396 107.402 42.8918 100.7C42.9478 93.3468 43.1859 85.9888 43.5743 78.6428L43.6406 77.4186C43.8461 73.6385 44.0445 69.8558 44.2189 66.0731C44.2734 64.8868 44.3561 63.6908 44.505 62.5065C45.8677 61.7044 47.0887 60.5987 47.8848 59.2341C49.4839 59.8987 51.1655 60.3779 52.7129 60.7601C56.2971 61.6457 60.018 61.8606 63.6661 61.3061C64.6502 61.7146 65.6537 62.0736 66.6727 62.3824C66.9482 62.5051 67.2236 62.6258 67.4987 62.7438C69.9555 63.7999 72.4474 64.6944 75.0405 65.3496L75.6776 65.509C77.0424 65.8471 78.5247 66.1799 79.977 66.2845C80.2156 66.377 80.4732 66.4553 80.7544 66.5242C82.0768 66.8468 83.4495 66.9488 84.805 66.835C86.1255 66.7236 87.0798 65.3827 86.3524 64.1275C85.8209 63.2113 85.2845 62.2977 84.7436 61.3865C86.6261 62.1743 88.5699 62.8294 90.5303 63.3846C92.5097 63.9448 94.5174 64.4169 96.5277 64.851C97.6024 65.0812 98.6816 65.2854 99.7539 65.5156C100.522 65.6793 101.7 65.7648 102.326 66.2725C103.018 66.8303 103.214 68.1307 103.477 68.9328C103.822 69.9746 104.145 71.021 104.44 72.0794C105.028 74.1914 105.51 76.3341 105.883 78.4984C106.257 80.6649 106.507 82.8528 106.646 85.0479C106.786 87.2405 106.724 89.4474 106.948 91.6306C107.069 92.7887 108.307 93.3844 109.221 92.575C109.328 92.4802 109.436 92.3843 109.543 92.2872L109.703 92.1409C110.485 91.4288 111.243 90.6742 111.869 89.8249C111.982 89.6682 112.091 89.5043 112.192 89.3383C112.209 89.3383 112.223 89.3336 112.239 89.3216L112.413 89.1904C114.323 87.7621 117.515 85.8997 119.377 88.2729C119.971 89.0289 120.275 89.9916 120.527 90.9202L120.97 92.5823C121.256 93.6675 121.525 94.7586 121.683 95.8688C122.04 98.3558 121.86 101.222 120.157 103.216C119.476 104.013 118.539 104.582 117.493 104.732C116.909 104.813 116.333 104.713 115.754 104.64C115.166 104.566 114.599 104.684 114.011 104.628C113.076 104.535 112.667 105.66 113.016 106.367C113.206 106.747 113.428 107.074 113.68 107.352C113.477 107.527 113.283 107.717 113.097 107.917C112.544 108.095 112.048 108.477 111.677 108.982C111.377 109.39 111.222 109.834 111.196 110.302C111.162 110.418 111.134 110.537 111.108 110.657L110.601 111.484C110.49 111.665 110.379 111.844 110.267 112.02C108.978 114.06 107.546 115.788 105.768 117.416C104.055 118.982 102.196 120.385 100.588 122.064L100.398 122.264C98.8984 123.852 97.3175 125.774 97.9045 128.083C98.0557 128.676 98.8803 129.103 99.4186 128.702C101.15 127.411 102.022 125.365 103.491 123.799C105.003 122.186 106.677 120.736 108.193 119.127C109.627 117.608 110.759 115.888 111.611 113.994C111.952 114.371 112.447 114.639 113.135 114.744C114.316 114.922 115.417 114.227 115.931 113.199C116.262 113.346 116.6 113.479 116.94 113.583C118.73 114.134 119.857 112.133 119.181 110.655C118.82 109.863 118.369 109.174 117.809 108.595C119.559 108.353 121.34 107.444 122.491 106.31C125.377 103.46 125.774 99.1767 125.124 95.3681C124.779 93.3486 124.184 91.3056 123.412 89.4096C123.277 89.0797 123.133 88.7474 122.975 88.4198C123.062 88.4175 123.152 88.3796 123.209 88.306C123.731 87.5895 124.366 87.0032 124.753 86.2011C125.11 85.4656 125.507 84.7204 125.788 83.954C126.366 82.3853 126.65 80.6151 126.839 78.9563C127.229 75.5607 127.078 72.1862 126.56 68.8117C125.679 63.0643 123.552 57.5641 120.417 52.7378C120.588 52.6477 120.751 52.5391 120.904 52.4104L120.979 52.3444L121.101 52.2334C121.996 51.4202 121.919 49.8959 121.101 49.0722L120.843 48.8124C120.516 48.4862 120.235 48.2275 119.707 47.8724C119.629 47.82 119.549 47.7706 119.469 47.7245C119.745 47.2117 119.841 46.6116 119.648 45.9498C118.978 43.6441 115.675 43.7257 113.583 44.7313C111.267 42.6551 108.7 40.8529 105.917 39.3935C99.2887 35.9193 91.7944 33.4965 84.4767 32.0158ZM118.737 92.7412C117.499 92.3354 115.856 93.1873 114.743 93.7C113.333 94.3502 112.133 95.3112 110.971 96.3269C110.392 96.8346 110.288 97.6651 110.432 98.3748C110.447 98.4458 110.461 98.5194 110.478 98.5931C110.631 99.35 111.472 99.9457 112.216 99.9243C113.772 99.8817 114.514 98.5314 115.395 97.3876C115.499 97.5727 115.629 97.7434 115.79 97.8716L115.898 97.957C116.264 98.2368 116.667 98.4604 117.15 98.4388C117.493 98.4221 117.821 98.3344 118.123 98.1754C118.879 97.7742 119.212 96.792 119.007 95.9922C118.879 95.4893 118.586 95.0951 118.203 94.8224L118.346 94.7243C118.651 94.511 118.93 94.286 119.147 93.9539L119.196 93.8754H119.177C119.413 93.4674 119.259 92.912 118.737 92.7412Z" fill="black"/>
<path fill-rule="evenodd" clip-rule="evenodd" d="M60.4407 116.622C62.1808 117.128 64.0485 117.173 65.8221 116.651C67.4306 116.176 69.0825 115.132 70.2665 113.751C71.3183 112.524 71.9994 111.033 71.9727 109.441C71.9696 109.26 71.905 109.108 71.8055 108.99C71.6983 108.863 71.5486 108.776 71.3883 108.739C71.2234 108.7 71.0492 108.713 70.9008 108.781C70.7664 108.842 70.6514 108.947 70.5793 109.099C70.3974 109.339 70.2162 109.576 70.0342 109.806C68.5711 111.621 67.1544 112.977 64.9544 113.464C63.7608 113.727 62.5688 113.61 61.4749 113.208C60.3042 112.776 59.2457 112.018 58.4163 111.048C58.0415 110.61 57.599 110.431 57.1663 110.428C56.6758 110.424 56.1911 110.653 55.8261 111.019C55.4672 111.379 55.2267 111.868 55.2049 112.379C55.186 112.827 55.3316 113.296 55.7191 113.714C56.9958 115.092 58.6505 116.101 60.4407 116.622ZM60.4946 93.8902C58.7109 94.9795 55.9933 97.5194 57.912 100.22C60.1705 102.601 63.4224 99.8707 65.0249 98.6361C66.5107 97.6793 68.1801 100.14 66.8015 101.257C55.2222 109.87 50.5231 94.175 59.5924 92.6096C60.591 92.437 60.9619 93.5533 60.4946 93.8902ZM77.1794 89.0976C77.7526 88.7291 78.4271 88.6028 79.1745 88.9442C79.7584 89.2111 80.7828 90.1007 81.4957 91.2699C81.9834 92.0699 82.3293 93.0084 82.2571 93.9862C82.2405 94.2131 82.3239 94.3805 82.4557 94.5042C82.5597 94.602 82.71 94.6738 82.8865 94.6963C83.0364 94.7154 83.204 94.6982 83.3403 94.6554C83.5997 94.5741 83.7369 94.405 83.7886 94.2669C84.2878 92.9353 84.0729 91.4491 83.5133 90.1082C82.7584 88.2987 81.3873 86.7832 80.4892 86.2945C78.9521 85.4581 77.1387 85.4195 75.5994 86.2717C74.2892 86.9969 73.4697 88.168 72.6549 89.3616C72.4817 89.6154 72.3098 89.8672 72.1321 90.1146C71.776 90.6105 71.7406 91.1022 71.8785 91.5239C72.0312 91.9911 72.4208 92.3852 72.908 92.5917C73.3581 92.7824 73.8807 92.8092 74.3431 92.6133C74.7336 92.4478 75.0921 92.1252 75.319 91.5777C75.7011 90.6557 76.3374 89.6384 77.1794 89.0976ZM48.0642 91.1488C48.4569 91.3543 48.764 91.4162 49.1995 91.2852C49.4405 91.2125 49.6783 91.0731 49.8647 90.8859C50.0495 90.7004 50.1827 90.4697 50.2344 90.2136C50.3618 89.582 50.706 88.9906 51.1963 88.6049C51.6154 88.2755 52.1443 88.1007 52.731 88.1993C53.3641 88.3056 53.9673 88.7135 54.3826 89.1944C54.5217 89.3553 54.6303 89.538 54.7399 89.7198C54.9446 90.0591 55.1436 90.3747 55.4257 90.6242C55.5327 90.7189 55.694 90.7846 55.8502 90.7846C55.9137 90.7846 55.978 90.7742 56.0396 90.7549C56.6697 90.1195 56.7907 89.6375 56.7706 89.1594C56.7493 88.6581 56.5524 88.1504 56.2344 87.6768C55.4887 86.5659 54.0726 85.6549 53.1171 85.4484C51.8085 85.166 50.5088 85.5051 49.4667 86.2395C48.3946 86.995 47.6001 88.1682 47.3524 89.4903C47.293 89.8087 47.3182 90.1522 47.4388 90.4502C47.5568 90.7415 47.7624 90.9908 48.0642 91.1488ZM74.2932 77.2519C75.0785 78.0206 76.008 78.1398 76.9486 78.2457C77.4709 78.3052 77.8881 78.3529 78.2986 78.446C79.4267 78.7019 80.5418 79.0873 81.5592 79.6422C82.6229 80.2224 83.7818 80.922 84.6156 81.8184C84.8139 82.0316 85.0008 82.2553 85.1878 82.4796C85.3585 82.6842 85.5229 82.881 85.6961 83.071C85.8952 83.289 86.0841 83.5176 86.2721 83.7454C86.3883 83.9378 86.4112 83.9851 86.4346 84.0345C86.47 84.1085 86.5109 84.1913 86.5578 84.2802C86.6217 84.4018 86.6969 84.5349 86.7755 84.6557C86.9062 84.8765 86.9764 84.9372 87.0371 84.9645C87.1377 85.0094 87.233 85.0317 87.3257 85.0195C87.4126 85.0085 87.4943 84.9664 87.5751 84.8979C87.9783 84.5556 88.0972 83.994 88.0851 83.3977C88.0666 82.493 87.7343 81.4913 87.4281 80.8754C86.7161 79.4445 85.7287 77.9571 84.5414 76.8891C83.1867 75.6703 81.7043 74.7473 80.0017 74.1114C78.9439 73.7161 77.7189 73.3533 76.5662 73.3991C75.7364 73.4321 74.9443 73.6799 74.2904 74.2986C73.8886 74.6784 73.6959 75.2188 73.6959 75.7587C73.6959 76.3094 73.8961 76.8632 74.2932 77.2519ZM46.4669 84.2915C46.517 84.3738 46.5861 84.4305 46.6629 84.4646C46.7437 84.5001 46.8336 84.5104 46.92 84.4958C47.0061 84.4812 47.0878 84.442 47.1527 84.3822C47.2148 84.3249 47.2621 84.2487 47.2834 84.1556C47.8048 81.8548 48.8172 80.1429 50.978 79.0391C52.041 78.4961 53.2635 78.1511 54.4206 77.876C54.7568 77.7961 55.1122 77.7441 55.47 77.6916C56.5915 77.5273 57.721 77.3387 58.4519 76.4282C58.8926 75.8795 59.0773 75.1778 58.9729 74.5363C58.8746 73.9322 58.5231 73.3782 57.8844 73.0464C56.2941 72.2203 54.318 73.0309 52.7121 73.7213C52.5931 73.7726 52.4761 73.8229 52.3618 73.8713C50.7912 74.5373 49.359 75.4163 48.1817 76.6734C47.2475 77.6709 46.3819 79.1454 46.0333 80.6621C45.7434 81.9239 45.8116 83.2121 46.4669 84.2915Z" fill="black"/>
<path fill-rule="evenodd" clip-rule="evenodd" d="M55.4918 120.455C57.6915 118.486 60.1572 114.527 63.3173 117.659C64.0989 118.544 64.4154 120.528 65.6105 120.917C67.1977 121.435 68.7709 119.747 69.3117 118.452C71.525 111.253 62.3761 109.278 57.1642 110.441C54.618 111.492 52.7425 115.72 52.6292 117.927C52.5559 119.41 53.8053 121.591 55.4918 120.455ZM38.8966 109.358C38.9181 109.263 38.9481 109.176 38.9841 109.098C39.957 108.728 40.7268 109.105 41.2026 109.809C41.1869 109.984 41.1349 110.161 41.1022 110.335C41.4693 111.112 41.8004 112.073 42.2979 112.744C42.396 112.752 42.4979 112.741 42.5957 112.713C50.842 113.578 46.816 104.91 55.1801 102.757C61.6456 101.685 73.3312 102.912 76.3813 109.674C78.7865 120.473 91.0176 112.948 95.0336 107.332C99.3185 102.22 102.089 95.9744 104.76 89.9138C105.325 88.6313 107.087 89.5484 106.895 90.7789C109.364 95.7555 109.282 101.733 109.894 107.185C110.934 118.062 111.947 133.315 101.888 139.956C88.7826 154.839 56.0553 160.091 40.9392 146.416C35.7065 135.114 36.3515 121.325 38.8966 109.358Z" fill="black"/>
<path fill-rule="evenodd" clip-rule="evenodd" d="M47.5047 76.2429C41.9606 76.2429 38.7969 77.4406 37.6374 77.5339L37.6026 77.5365C37.1205 77.5675 36.6878 77.608 36.234 77.7844C34.5651 78.4301 34.2933 80.1886 35.267 81.2969C35.3354 83.5901 35.0352 86.2694 35.5503 88.5702C36.1858 98.2689 40.7257 99.9055 43.3064 100.503C44.6019 100.803 46.1376 100.922 47.5136 100.606C49.8615 100.518 52.1825 99.7793 54.1685 98.4934C56.9341 96.7013 58.9882 93.947 59.6548 90.6779C59.9709 89.1197 60.1184 87.4979 59.9465 85.9139L59.921 85.6956C60.8201 85.2637 61.8618 85.1821 62.9355 85.1437C63.4485 85.1254 63.9542 85.1089 64.4455 85.131C64.9254 85.1849 65.3998 85.2566 65.8758 85.3542C66.3954 85.5118 66.8861 85.7716 67.3392 86.1834L67.3703 86.7844C67.4555 88.2856 67.6517 89.7913 67.9543 91.2641C68.401 93.4371 69.1195 95.5126 70.6489 97.0541C71.1666 97.8308 71.8072 98.5242 72.585 99.1248C75.4101 101.31 79.2481 102.112 82.7707 101.81C89.9222 101.197 94.0556 95.4936 95.0084 93.0557L95.0652 92.9081C95.7534 91.0957 96.302 88.7442 98.4764 88.3548L98.9388 88.2713C99.9311 88.0841 100.847 87.8235 101.429 86.851C101.684 86.4263 101.815 85.9513 101.847 85.4671C102.186 85.4934 102.525 85.5183 102.863 85.5428C105.558 86.1152 121.72 86.6007 123.01 86.6007C123.01 86.6007 125.49 87.6493 126.537 86.8368C127.263 86.2718 127.502 85.5188 127.102 84.6659C126.499 83.3824 123.718 82.6104 122.484 82.3659C122.484 82.3659 102.557 82.5321 101.123 82.2589C100.235 81.3397 98.648 81.4655 97.3216 81.3201C96.2235 80.5335 94.6876 80.0068 93.4743 79.6541C93.227 79.56 92.9821 79.469 92.744 79.3832C90.5197 78.5874 88.2076 78.1658 85.8604 77.9393C83.4399 77.7084 81.0121 77.8128 78.6056 78.1441C77.5916 78.2824 76.5869 78.4611 75.5895 78.6949C73.8032 78.9314 72.0275 79.3211 70.2406 79.7832L69.8831 79.8768C68.0015 80.3722 66.0678 80.8009 64.12 80.4649C62.5344 80.1933 61.0095 79.58 59.5473 78.9171L59.357 78.8303C56.1423 77.3557 51.1217 76.2429 47.5047 76.2429ZM75.7829 81.635C76.969 81.3728 77.4755 83.2103 76.2856 83.473C75.4429 83.6592 74.7288 84.086 74.2462 84.8093L74.1954 84.8879C73.548 85.923 71.9109 84.9676 72.5628 83.9256C73.2963 82.7534 74.4361 81.9322 75.7829 81.635ZM41.0413 80.4957C41.4595 80.1999 42.0921 80.4195 42.3349 80.8376C42.6021 81.298 42.4272 81.8109 42.0355 82.1121L41.9957 82.1415C41.6363 82.396 41.2865 82.8519 41.2425 83.3189L41.2387 83.3775C41.1917 84.6001 39.3003 84.6062 39.3476 83.3775C39.3937 82.1754 40.0865 81.171 41.0413 80.4957Z" fill="black"/>
<path fill-rule="evenodd" clip-rule="evenodd" d="M335.054 178.586C332.996 170.565 331.102 167.164 327.444 164.376C324.024 161.769 319.029 159.579 311.745 157.979C304.155 156.646 303.939 152.684 302.038 146.316C301.483 144.402 298.732 143.893 297.545 145.272C297.376 145.091 297.203 144.925 297.023 144.774C297.184 143.862 295.859 141.245 295.904 140.371C296.365 131.256 293.398 126.679 285.988 124.977C284.377 124.607 273.434 124.389 271.863 124.825C264.995 126.732 258.236 132.788 259.271 140.083C257.114 142.913 255.005 144.64 251.678 145.552C244.276 146.496 236.875 147.335 229.472 148.054C214.979 150.337 201.392 158.042 192.106 169.28C191.249 170.317 191.001 171.725 191.757 172.831C191.165 175.379 187.831 181.559 190.455 183.306C186.14 193.668 176.217 213.696 176.198 219.418C176.12 243.456 178.705 274.743 202.319 288.046C203.265 288.979 203.401 290.014 203.81 291.401C204.848 295.777 208.617 298.905 212.745 298.651C233.075 299.105 252.766 296.612 273.096 296.492C282.062 296.438 292.844 297.783 300.631 298.679C308.421 299.575 316.281 298.783 323.757 296.492C324.387 297.489 325.66 298.07 326.953 297.783C334.7 296.238 340.966 291.441 346.424 286.2C348.093 283.152 354.604 274.47 352.015 271.446C354.363 261.483 354.241 250.776 350.071 241.285C350.661 239.547 349.584 237.636 350.071 235.839C350.423 234.539 351.324 234.002 351.778 232.714C352.415 230.903 351.722 228.474 351.003 226.626C350.708 225.704 351.544 224.712 351.778 223.773C352.881 219.339 350.355 219.73 348.535 216.766C348.561 216.757 349.034 214.641 349.032 214.651C349.31 213.141 348.613 211.205 348.004 209.945C347.592 209.092 346.712 208.559 345.833 208.657C346.716 205.647 347.833 203.143 349.032 200.244C351.155 195.134 353.841 190.24 356.889 185.614C358.137 183.72 356.461 181.526 354.443 181.397C347.903 180.979 341.439 180.034 335.054 178.586Z" fill="white"/>
<path fill-rule="evenodd" clip-rule="evenodd" d="M315.974 217.232C313.361 216.202 310.544 215.633 307.716 215.412C309.238 215.144 310.767 214.885 312.307 214.752C313.382 214.66 314.377 214.669 315.185 215.488C315.723 216.034 315.976 216.736 316.332 217.382C316.215 217.329 316.096 217.28 315.974 217.232ZM344.04 207.602C339.758 207.821 335.471 208.844 331.598 210.697C330.013 211.456 328.575 212.553 328.156 214.356C327.943 215.277 327.995 216.229 328.107 217.159C328.194 217.863 328.215 218.763 328.823 219.24C328.929 219.32 329.039 219.382 329.154 219.427C327.725 220.075 326.365 220.854 325.155 221.655C324.049 222.388 322.914 223.519 322.403 224.791C322.361 224.648 322.319 224.512 322.277 224.385C321.408 221.803 320.069 219.688 317.959 218.267C318.332 218.099 318.589 217.7 318.47 217.149C317.969 214.85 315.855 212.852 313.466 212.994C310.851 213.148 308.044 214.104 305.679 215.312C304.817 215.293 303.956 215.305 303.106 215.343C302.961 215.348 302.968 215.548 303.106 215.564C303.797 215.652 304.487 215.749 305.176 215.863C306.815 216.127 308.449 216.461 310.048 216.876C311.966 217.375 313.951 217.875 315.742 218.746C319.219 220.438 321.371 224.862 320.931 228.712C320.858 229.342 320.615 231.249 319.741 231.054C319.006 230.887 318.713 229.342 318.456 228.77C317.765 227.251 316.522 226.259 315.033 225.589C313.281 224.796 311.408 224.262 309.594 223.642C308.568 223.289 307.54 222.934 306.51 222.583C305.457 222.221 304.454 221.72 303.333 221.974C302.656 222.127 302.577 222.938 302.958 223.404C303.537 224.114 304.396 224.324 305.229 224.615C306.33 224.998 307.428 225.384 308.528 225.767C310.226 226.362 312.005 226.861 313.661 227.587L313.609 227.707C313.473 227.67 313.314 227.804 313.342 227.971C313.588 229.506 313.935 231.279 313.551 232.817C313.249 234.038 312.183 235.388 310.8 235.03C311.017 234.83 311.097 234.487 310.952 234.169C310.402 232.991 303.223 228.345 302.581 230.071C302.56 230.132 302.626 230.177 302.68 230.167C303.225 230.054 304.138 230.988 304.576 231.284C305.206 231.712 305.845 232.131 306.47 232.568C307.152 233.048 307.819 233.551 308.468 234.071C308.978 234.48 309.364 234.903 309.95 235.11C309.643 235.258 309.399 235.531 309.294 235.879C309.029 236.789 308.521 237.56 307.634 237.96C306.707 238.379 305.66 238.115 304.682 238.216C303.349 238.353 302.188 238.988 301.216 239.898C299.179 241.81 298.156 245.179 295.304 246.082C293.602 246.623 291.713 246.282 289.987 246.038C288.062 245.765 286.187 245.549 284.248 245.833C282.392 246.108 280.638 246.753 278.94 247.54C277.351 248.279 275.595 249.113 274.185 250.214C273.895 249.316 273.6 248.424 273.377 247.507C272.855 245.337 272.572 243.124 272.502 240.892C272.438 238.769 272.558 236.636 272.738 234.522C272.83 233.466 272.97 232.415 273.059 231.359C273.082 231.094 273.132 230.809 273.167 230.525C275.684 229.031 278.329 227.886 280.996 226.71C281.003 226.708 281.01 226.703 281.017 226.701C281.099 226.663 281.181 226.628 281.263 226.59C281.261 226.586 281.258 226.581 281.254 226.576C281.558 226.391 281.771 226.141 281.898 225.861C285.742 223.301 288.955 219.805 291.35 215.728C292.352 214.019 293.319 212.246 294.632 210.749C296.03 209.152 297.69 208.203 299.746 207.709C302.148 207.13 304.623 206.784 307.084 206.587C308.428 206.48 309.931 206.314 311.394 206.321C312.415 206.328 313.415 206.416 314.33 206.67C315.688 207.045 316.482 208.082 317.334 209.131C318.149 210.137 318.959 211.145 319.72 212.195C320.441 213.189 321.123 214.216 321.713 215.293C322.066 215.939 322.394 216.604 322.67 217.289C322.769 217.531 322.895 217.806 322.954 218.058C323.014 218.312 322.904 218.58 323.188 218.58C322.019 218.597 322.031 220.474 323.192 220.405C327.742 220.139 321.226 211.217 320.273 209.973C318.924 208.212 317.533 205.915 315.375 205.097C315.344 205.085 315.311 205.073 315.281 205.063C315.908 204.465 316.405 203.749 316.88 203.02C317.369 202.27 317.952 201.411 318.112 200.521C318.215 199.955 317.512 199.631 317.18 200.127C316.695 200.851 316.461 201.767 316.1 202.562C315.73 203.369 315.283 204.131 314.927 204.945C314.075 204.681 313.155 204.56 312.216 204.52C313.401 202.911 315.421 199.807 315.665 199.408C316.784 197.562 317.849 195.659 318.868 193.754C319.968 191.689 320.912 189.539 321.966 187.451C322.563 186.267 323.164 185.073 323.829 183.925C324.056 183.531 324.302 183.137 324.581 182.778C324.637 182.707 324.705 182.648 324.768 182.581C324.841 182.541 324.918 182.496 324.96 182.472C325.342 182.252 325.478 181.739 325.747 181.414C326.175 180.89 326.681 180.828 327.33 180.821C328.709 180.806 330.092 180.861 331.469 180.899C333.494 180.956 335.515 181.037 337.538 181.143C338.149 181.177 338.758 181.21 339.371 181.248C342.31 181.424 345.248 181.653 348.18 181.936C350.774 182.185 353.368 182.591 355.962 182.786C352.448 191.174 348.552 199.411 344.138 207.361C344.094 207.441 344.061 207.522 344.04 207.602ZM324.539 229.212C323.972 229.476 323.422 229.8 322.909 230.169C322.996 229.593 323.017 228.987 322.993 228.375C323.415 228.831 323.956 229.092 324.539 229.212ZM348.737 214.783C348.697 214.788 348.66 214.809 348.641 214.85C347.856 216.475 348.184 218.29 349.465 219.565C350.137 220.229 351.598 220.979 351.551 222.071C351.511 222.953 350.554 223.693 350.146 224.422C349.765 225.102 349.624 225.847 349.929 226.581C350.317 227.524 351.406 227.898 351.781 228.824C352.254 230 351.486 231.416 350.947 232.439C350.446 233.386 349.797 234.332 349.369 235.333C346.489 236.831 343.911 239.129 341.696 241.462C339.271 244.013 337.189 247.014 333.338 246.938C332.954 246.931 332.661 247.136 332.485 247.418C331.413 247.467 330.338 247.489 329.266 247.493C327.381 247.503 325.496 247.484 323.614 247.425C323.48 246.966 323.579 246.346 323.572 245.958C323.548 244.711 323.537 243.467 323.483 242.223C323.469 241.875 323.455 241.527 323.441 241.182C324.12 242.412 325.443 242.971 326.948 242.887C329.371 242.745 331.809 242.346 334.209 241.988C335.473 241.8 336.735 241.586 337.992 241.358C339.027 241.175 340.488 241.222 341.209 240.387C341.38 240.194 341.39 239.837 341.123 239.707C340.406 239.355 339.957 239.55 339.17 239.703C338.21 239.891 337.25 240.067 336.285 240.234C334.436 240.556 332.581 240.855 330.722 241.118C329.664 241.269 328.603 241.415 327.543 241.532C326.618 241.631 325.574 241.767 324.827 241.067C323.324 239.653 324.166 237.283 325.117 235.853C325.136 235.825 325.136 235.799 325.129 235.776C326.028 235.564 326.922 235.317 327.814 235.143C329.533 234.811 331.261 234.532 332.993 234.282C336.55 233.772 340.13 233.436 343.708 233.097C344.593 233.01 344.602 231.611 343.708 231.693C338.568 232.166 333.406 232.615 328.336 233.607C327.067 233.854 325.805 234.134 324.55 234.452C323.958 234.597 323.324 234.828 322.701 234.835C322.663 234.835 322.626 234.835 322.588 234.833C321.371 234.795 321.195 233.748 321.863 232.878C321.947 232.77 322.031 232.664 322.118 232.561C323.3 231.148 324.771 230.202 326.288 229.227C327.985 228.994 329.678 228.476 331.343 228.095C335.447 227.157 339.552 226.217 343.661 225.278C344.464 225.095 344.122 223.851 343.317 224.034C340.2 224.742 337.081 225.452 333.963 226.162L329.399 227.202C328.489 227.409 327.351 227.823 326.278 227.973C325.749 228.046 325.236 228.055 324.773 227.947C323.279 227.59 323.202 225.713 323.848 224.599C324.569 223.345 325.934 222.562 327.147 221.852C329.247 220.621 331.481 219.736 333.663 218.715C334.052 218.63 334.438 218.544 334.827 218.459C337.079 217.961 339.655 217.716 341.774 216.803C342.41 216.532 342.062 215.526 341.434 215.54C339.788 215.576 338.067 216.164 336.459 216.513C334.717 216.893 332.975 217.27 331.233 217.648C331.059 217.685 330.025 218.018 329.868 217.944C329.769 217.897 329.734 217.55 329.699 217.322C329.594 216.572 329.516 215.785 329.631 215.032C329.886 213.345 331.287 212.553 332.705 211.905C335.859 210.464 339.32 209.563 342.764 209.202C343.558 209.119 344.351 209.067 345.15 209.04C346.086 209.012 346.859 208.846 347.334 209.774C348.081 211.236 348.493 213.115 348.737 214.783ZM344.356 267.782C343.668 265.393 343.855 262.844 343.384 260.406C343.141 259.15 342.808 257.901 342.446 256.674C342.155 255.684 341.666 254.628 341.612 253.593C341.607 253.525 341.689 253.485 341.745 253.518C342.715 254.075 343.459 255.282 344.012 256.229C344.675 257.363 345.18 258.548 345.59 259.797C346.402 262.28 347.07 265.278 346.021 267.782C345.709 268.528 344.614 268.678 344.356 267.782ZM323.106 236.138C323.686 236.081 324.267 235.968 324.848 235.839C324.199 236.476 323.6 237.241 323.265 238.092C323.214 237.438 323.148 236.789 323.061 236.14C323.075 236.14 323.092 236.14 323.106 236.138ZM317.522 285.87C316.496 285.151 315.749 284.147 314.881 283.26C314.026 282.39 315.363 281.047 316.217 281.917C316.96 282.675 317.601 283.618 318.475 284.231C318.896 284.525 319.09 285.057 318.814 285.529C318.571 285.946 317.941 286.162 317.522 285.87ZM311.806 258.261C313.677 257.447 315.517 256.563 317.475 255.978C318.645 255.627 319.14 257.459 317.978 257.807C316.175 258.348 314.483 259.152 312.762 259.9C311.654 260.38 310.694 258.743 311.806 258.261ZM292.055 257.692C291.596 256.558 293.427 256.069 293.876 257.186C294.396 258.473 294.991 259.728 295.508 261.015C295.965 262.148 294.138 262.637 293.686 261.518C293.167 260.232 292.572 258.978 292.055 257.692ZM272.558 280.335C272.251 280.742 271.745 280.965 271.265 280.676C270.863 280.434 270.617 279.789 270.926 279.378C271.825 278.171 272.738 276.979 273.794 275.905C274.649 275.032 275.986 276.375 275.131 277.247C274.188 278.207 273.361 279.258 272.558 280.335ZM269.769 153.286C270.636 153.881 271.397 154.604 272.136 155.348C272.998 156.213 271.661 157.555 270.802 156.69C270.177 156.063 269.547 155.426 268.816 154.925C268.393 154.635 268.203 154.095 268.477 153.626C268.72 153.206 269.348 152.997 269.769 153.286ZM298.135 183.835C297.643 184.821 297.203 185.789 297.175 186.91C297.145 188.131 295.255 188.132 295.286 186.91C295.321 185.442 295.859 184.17 296.503 182.877C297.046 181.782 298.676 182.745 298.135 183.835ZM308.542 159.3C309.559 158.619 310.502 160.265 309.495 160.939C308.681 161.485 307.863 162.032 307.046 162.579C306.03 163.259 305.087 161.614 306.093 160.94C306.908 160.393 307.725 159.846 308.542 159.3ZM263.401 202.197C263.228 203.404 261.406 202.888 261.579 201.693C261.844 199.846 262.169 198.024 262.668 196.225C262.993 195.048 264.815 195.551 264.49 196.73C263.991 198.529 263.665 200.351 263.401 202.197ZM256.775 223.943C255.56 223.917 255.56 222.019 256.775 222.045C257.877 222.068 258.959 222.36 260.02 222.626C261.202 222.922 260.697 224.754 259.519 224.458C258.62 224.232 257.707 223.964 256.775 223.943ZM254.33 267.749C253.911 267.954 253.483 268.137 253.061 268.333C252.216 268.721 251.371 269.109 250.526 269.499C248.765 270.31 247.004 271.126 245.246 271.945C241.727 273.581 238.182 275.159 234.653 276.777C231.055 278.43 227.468 280.102 223.883 281.783C222.195 282.576 220.495 283.338 218.795 284.109C217.344 284.77 215.55 285.922 213.956 286.03C213.874 286.035 213.848 285.932 213.895 285.877C214.497 285.191 215.457 284.791 216.248 284.342C217.056 283.886 217.88 283.455 218.699 283.02C220.408 282.11 222.118 281.207 223.843 280.33C227.294 278.576 230.753 276.836 234.211 275.096C237.737 273.32 241.258 271.535 244.817 269.823C246.491 269.017 248.17 268.215 249.847 267.413C250.755 266.98 251.666 266.545 252.574 266.115C252.968 265.927 253.356 265.725 253.757 265.558C254.291 265.337 254.698 265.381 255.248 265.245C256.145 265.024 256.534 266.169 255.845 266.67C255.276 267.079 254.979 267.432 254.33 267.749ZM241.715 287.215C241.521 286.743 241.928 286.167 242.375 286.049C242.911 285.906 243.342 286.233 243.537 286.71C244.056 287.977 244.794 289.139 245.742 290.12C246.592 290.997 245.257 292.339 244.408 291.462C243.216 290.232 242.361 288.796 241.715 287.215ZM232.436 256.744C231.575 255.879 232.909 254.536 233.771 255.401L236.22 257.861C237.081 258.727 235.744 260.069 234.883 259.204L232.436 256.744ZM207.311 252.732C205.55 253.252 203.497 253.727 202.296 255.237C202.237 255.312 202.139 255.216 202.174 255.143C203.71 251.942 208.119 250.818 211.169 249.699C213.328 248.904 215.541 248.248 217.774 247.66C217.552 245.099 218.168 242.358 218.381 239.811C218.61 237.092 218.795 234.365 218.891 231.637C218.987 228.855 219.011 226.054 218.922 223.272C218.83 220.498 218.472 217.759 218.315 214.996C218.299 214.729 218.669 214.716 218.751 214.937C219.678 217.501 220.074 220.342 220.376 223.047C220.687 225.831 220.79 228.61 220.75 231.411C220.708 234.292 220.542 237.165 220.313 240.037C220.205 241.398 220.078 242.757 219.959 244.119C219.87 245.156 219.828 246.186 219.617 247.19C220.963 246.858 222.312 246.546 223.658 246.24C227.95 245.266 232.258 244.363 236.531 243.312C238.629 242.795 240.697 242.176 242.783 241.629C244.749 241.111 246.826 240.483 248.844 240.253C249.563 240.171 249.655 241.161 249.179 241.497C247.538 242.654 245.358 243.46 243.464 244.107C241.563 244.758 239.584 245.226 237.636 245.706C233.572 246.713 229.467 247.533 225.37 248.389C221.277 249.243 217.177 250.092 213.132 251.145C211.184 251.653 209.243 252.163 207.311 252.732ZM197.662 201.944C196.611 202.565 195.66 200.924 196.709 200.305C198.081 199.496 199.542 198.889 201.017 198.296C202.148 197.841 202.633 199.678 201.518 200.127C200.193 200.659 198.896 201.218 197.662 201.944ZM193.853 272.474C192.799 273.09 191.848 271.448 192.9 270.835C194.377 269.974 195.995 269.4 197.526 268.648C198.615 268.112 199.57 269.751 198.479 270.287C196.948 271.039 195.33 271.613 193.853 272.474ZM192.139 232.439C193.16 233.412 194.52 233.871 195.805 234.381C196.925 234.826 196.433 236.662 195.302 236.213C193.703 235.576 192.073 234.992 190.804 233.781C189.919 232.937 191.258 231.597 192.139 232.439ZM203.424 178.066C204.543 178.508 204.054 180.344 202.921 179.897C201.666 179.402 200.366 179.025 199.111 178.53C197.99 178.088 198.482 176.254 199.615 176.7C200.87 177.195 202.167 177.571 203.424 178.066ZM223.328 156.47C224.52 156.269 225.028 158.098 223.832 158.301C222.347 158.553 220.884 158.847 219.477 159.394C218.341 159.836 217.852 158 218.976 157.564C220.383 157.017 221.844 156.722 223.328 156.47ZM229.905 209.052C228.814 208.512 229.772 206.876 230.858 207.413C232.005 207.979 233.192 208.417 234.443 208.684C235.634 208.939 235.126 210.769 233.939 210.515C232.532 210.214 231.193 209.689 229.905 209.052ZM236.117 179.433C237.294 179.11 237.791 180.941 236.62 181.264C234.56 181.831 232.436 182.126 230.362 182.631C229.177 182.919 228.678 181.088 229.858 180.801C231.935 180.295 234.056 180.001 236.117 179.433ZM262.469 170.139C263.665 170.361 263.155 172.19 261.966 171.97C260.701 171.734 259.418 171.731 258.135 171.73C256.918 171.729 256.92 169.831 258.135 169.832C259.594 169.832 261.031 169.872 262.469 170.139ZM348.411 180.057C345.325 179.76 342.232 179.523 339.137 179.345C338.992 179.337 338.852 179.328 338.706 179.321C338.69 179.288 338.669 179.257 338.648 179.224C337.636 177.733 336.892 176.243 336.248 174.558C335.632 172.954 335.033 171.3 334.085 169.853C333 168.204 331.539 166.913 329.936 165.795C328.964 166.451 328.063 167.22 327.238 168.035C326.37 168.892 325.033 167.55 325.901 166.693C326.634 165.968 327.416 165.299 328.245 164.695C327.29 164.112 326.314 163.563 325.363 163.018C321.799 160.975 318.149 159.086 314.426 157.359C312.694 156.554 310.942 155.84 309.177 155.116C308.226 154.727 307.29 154.226 306.339 153.776C306.409 153.101 306.208 152.347 305.693 151.903C305.314 151.578 305.019 151.457 304.564 151.227C304.461 151.191 304.401 151.17 304.372 151.158C304.394 151.163 304.454 151.182 304.557 151.215C304.799 151.327 304.817 151.293 304.614 151.117C304.602 150.733 303.848 149.922 303.677 149.526C303.075 148.166 302.89 146.727 302.003 145.489C300.783 143.783 298.732 143.137 296.822 143.716C296.623 141.663 296.571 139.521 295.801 137.689C295.78 137.639 295.712 137.618 295.681 137.672C294.878 139.046 294.808 140.577 294.747 142.162C294.689 143.65 294.745 145.171 294.939 146.649C294.815 146.744 294.691 146.834 294.562 146.922C293.951 147.325 293.295 147.636 292.605 147.867C291.291 148.303 289.915 148.493 288.538 148.559C284.984 148.73 281.319 148.37 277.824 147.757C274.288 147.138 268.868 146.208 265.721 144.43C263.644 143.258 261.729 141.827 259.788 140.441C260.493 138.163 260.671 135.714 259.964 133.79C259.877 133.56 259.519 133.517 259.451 133.79C259.006 135.626 258.877 137.473 258.285 139.288C258.276 139.314 258.266 139.343 258.257 139.369C258.074 139.243 257.889 139.12 257.704 138.996C257.28 138.714 256.7 138.925 256.445 139.329C252.366 145.785 245.906 146.156 239.123 147.309C231.699 148.571 224.237 149.933 217.1 152.404C210.273 154.768 203.75 158.208 198.582 163.348C197.412 164.512 196.318 165.752 195.286 167.046C196.285 167.173 197.276 167.37 198.254 167.679C199.411 168.044 198.915 169.876 197.751 169.509C196.494 169.112 195.222 168.916 193.939 168.818C190.427 173.645 187.69 179.117 185.321 184.503C180.78 194.831 177.824 205.83 176.464 217.027C177.211 216.578 177.971 216.149 178.75 215.751C179.833 215.197 180.788 216.836 179.704 217.39C178.5 218.005 177.331 218.683 176.198 219.418C175.704 224.319 175.512 229.252 175.628 234.179C175.904 245.92 177.482 258.005 181.051 269.207C182.801 274.708 185.122 280.161 188.578 284.808C190.139 286.912 191.916 288.81 194.01 290.392C195.023 291.161 196.096 291.848 197.227 292.427C198.683 293.177 200.582 293.424 201.839 294.484C202.253 294.832 202.572 295.293 202.813 295.813C202.673 296.8 202.656 297.788 202.925 298.776C203.01 299.084 203.242 299.335 203.527 299.458C203.532 299.542 203.532 299.625 203.532 299.707C203.532 299.744 203.588 299.754 203.597 299.716C203.609 299.643 203.621 299.568 203.633 299.493C203.724 299.523 203.82 299.538 203.921 299.538C207.508 299.552 211.099 299.465 214.693 299.342C214.415 298.486 214.115 297.64 213.825 296.784C213.434 295.622 215.257 295.128 215.646 296.278C215.986 297.278 216.339 298.27 216.653 299.272C220.502 299.128 224.351 298.957 228.191 298.827C236.363 298.555 244.529 298.465 252.701 298.291C265.393 298.021 278.177 297.468 290.886 298.009C291.326 297.073 291.818 296.156 292.286 295.232C292.837 294.141 294.466 295.103 293.916 296.191C293.593 296.833 293.256 297.468 292.937 298.108C295.513 298.242 298.084 298.421 300.65 298.663C305.028 299.074 309.367 299.808 313.74 300.264C318.187 300.73 322.539 300.645 326.95 299.909C327.744 299.775 328.212 299.293 328.407 298.696C328.414 298.693 328.418 298.689 328.423 298.682C328.648 298.416 328.861 298.195 329.081 298.002C329.343 297.833 329.627 297.687 329.959 297.56C330.582 297.322 331.228 297.177 331.886 297.08C332.607 296.97 333.34 296.96 334.063 296.871C334.672 296.793 335.267 296.676 335.862 296.535C336.932 296.278 337.948 295.942 338.959 295.5C339.84 295.112 340.636 294.557 341.387 293.953C342.942 292.81 344.288 291.354 345.464 289.84C346.15 288.953 346.794 288.036 347.379 287.079C348.4 285.424 349.268 283.702 350.149 281.969C350.467 281.454 350.757 280.927 351.024 280.391C349.306 279.881 347.573 279.467 345.752 279.439C344.536 279.418 344.536 277.52 345.752 277.539C347.84 277.574 349.816 278.063 351.778 278.646C351.872 278.393 351.966 278.134 352.05 277.875C352.284 277.332 352.476 276.775 352.638 276.208C352.731 275.952 352.827 275.695 352.921 275.439C353.134 274.552 353.347 273.664 353.56 272.772C353.989 271.35 354.326 269.903 354.574 268.438C354.782 267.477 354.944 266.505 355.052 265.523C355.382 263.143 355.651 260.768 355.67 258.362C355.642 256.878 355.548 255.397 355.386 253.925C355.318 252.923 355.204 251.926 355.047 250.936C354.843 249.464 354.642 248.008 354.305 246.555C354.052 245.574 353.799 244.591 353.546 243.609C352.916 241.56 352.172 239.552 351.315 237.591C351.268 237.466 351.029 237.196 350.884 237.194C350.776 237.191 350.624 237.292 350.675 237.424C350.68 237.436 350.685 237.45 350.69 237.462C350.64 237.351 350.591 237.236 350.542 237.125C350.5 237.022 350.334 236.813 350.207 236.815C350.2 236.815 350.193 236.815 350.184 236.817C350.217 236.794 350.247 236.763 350.277 236.726C351.125 235.719 351.675 234.39 352.284 233.224C352.787 232.26 353.26 231.244 353.398 230.155C353.518 229.201 353.356 228.258 352.757 227.484C352.078 226.602 350.797 226.191 351.509 224.918C352.317 223.47 353.504 222.217 352.321 220.571C351.72 219.733 350.764 219.273 350.055 218.544C349.24 217.702 348.854 216.575 348.875 215.424C348.924 215.452 348.99 215.438 349.013 215.367C349.699 213.288 349.203 211.006 348.503 208.981C348.119 207.883 347.309 207.581 346.367 207.527C350.448 199.518 354.267 191.381 357.672 183.056C357.784 182.783 357.896 182.51 358.006 182.237C358.173 181.829 357.821 181.286 357.419 181.196C354.476 180.548 351.408 180.341 348.411 180.057Z" fill="black"/>
<path fill-rule="evenodd" clip-rule="evenodd" d="M314.363 80.8625C313.801 73.5668 314.67 65.9198 311.87 58.9856C306.988 47.48 293.3 43.6437 282.687 39.2635C278.435 38.0012 264.129 37.8248 259.151 36.1545C247.884 32.3737 245.192 27.8691 236.241 35.0676C234.728 36.2973 233.782 37.6339 233.094 39.4598L233.122 39.4676C232.925 40.229 233.136 40.9886 233.581 41.5687C229.699 45.555 228.074 51.5312 230.067 56.8375C236.566 70.6457 236.26 78.1121 234.166 92.9567C231.432 106.815 237.681 111.877 248.03 119.418C247.608 120.239 247.519 121.33 248.069 122.054C260.036 138.95 282.602 147.016 301.935 138.441C309.783 134.932 313.286 126.535 315.286 118.959C317.615 110.475 318.332 101.536 316.435 92.8948C315.67 88.8982 314.675 84.9304 314.363 80.8625Z" fill="white"/>
<path fill-rule="evenodd" clip-rule="evenodd" d="M245.332 0.03276C246.784 -0.18638 247.88 0.719081 248.402 1.99533L248.43 2.06407C248.599 2.49833 248.784 2.92071 248.985 3.33599C252.621 1.54438 257.807 2.00474 260.109 5.63307C261.75 8.22442 260.748 11.2998 260.13 14.0478L259.722 15.8583C260.509 16.3606 261.099 17.2596 261.073 18.1906L261.069 18.2623L260.905 20.7871C261.429 20.2533 261.907 19.6718 262.335 19.0524C262.63 18.509 262.949 17.9752 263.291 17.4578C265.307 14.4133 269.83 17.0592 268.168 20.3196C267.847 20.9484 267.489 21.5441 267.105 22.1183C266.669 22.9656 266.313 23.8364 266.039 24.7311C266.826 25.0752 267.43 25.8394 267.493 26.9926C267.643 29.6861 266.234 31.9332 263.995 33.3451C263.337 33.7603 262.656 33.8412 262.04 33.687C261.93 33.8339 261.823 33.9811 261.72 34.1307C262.612 34.8592 263.417 35.6898 264.108 36.6104C266.192 36.2972 268.287 36.15 270.383 36.1453C272.942 34.8853 276.009 34.9114 278.76 35.3836C280.533 35.6874 282.232 36.2781 283.977 36.7031C285.812 37.1491 287.678 37.1656 289.537 37.4694C291.881 37.8515 293.937 38.9384 295.227 40.6729C296.648 40.7157 298.14 41.2996 299.378 42.0921C302.26 43.9383 305.124 45.8106 307.999 47.6688C309.102 48.382 309.514 49.5208 309.313 50.7909L309.299 50.8723L309.203 51.399L309.43 51.7233C310.308 52.9715 311.265 54.2787 311.834 55.6562C312.888 57.1822 313.841 58.7814 314.684 60.4308C315.819 62.6471 316.758 64.9966 317.393 67.4073C317.552 68.0173 317.709 68.6318 317.814 69.2535C317.962 70.1316 317.732 70.8126 317.608 71.6552C317.451 72.723 317.395 73.8052 317.229 74.8754C317.119 75.5848 316.519 75.9336 315.89 75.9526C316.126 77.7586 316.297 79.5763 316.461 81.3797C316.688 83.9568 316.845 86.5411 316.981 89.1252C317.674 90.1385 319.093 90.9406 320.118 91.2183C321.539 91.6002 323.026 91.1849 324.368 90.6986C325.211 90.3925 325.904 91.458 325.492 92.1698C324.199 94.4052 321.436 94.3957 319.343 93.4062C318.458 92.9886 317.681 92.3835 317.105 91.5955C317.14 92.3454 317.177 93.0953 317.215 93.8476L317.25 94.5288C317.676 102.486 318.596 110.717 317.107 118.596C314.529 132.243 303.288 142.634 289.556 143.441C282.352 143.865 276.351 141.726 273.366 140.533C270.383 139.341 271.542 136.909 273.614 137.604C277.182 138.802 283.738 140.586 289.605 139.815C303.431 137.999 315.157 131.056 313.951 101.152C313.78 96.9109 313.256 92.6681 313.141 88.4275C313.033 84.282 313.073 80.1339 312.89 75.9907L312.829 74.577C312.759 72.9252 312.684 71.2658 312.56 69.6119C312.413 68.9711 312.289 68.3209 312.106 67.6921C311.614 65.9811 310.968 64.3177 310.167 62.7301C309.989 62.8656 309.793 62.9627 309.577 63.0008C307.945 63.295 306.414 63.212 304.885 62.5286C304.173 62.2128 303.544 61.7928 302.958 61.2731C302.68 61.0288 302.495 60.7915 302.347 60.5446C301.607 60.5566 300.867 60.3335 300.406 59.7996C299.877 59.1911 299.79 58.5625 299.996 57.9805L300.017 57.9224L299.966 57.9036C299.343 59.5243 298.1 60.9505 296.737 61.9139C294.583 63.4422 291.888 63.8836 289.303 63.9238C286.451 63.9666 283.443 63.5252 280.626 63.0744C279.882 62.9557 279.144 62.8204 278.418 62.6377C278.39 62.6662 278.362 62.6993 278.329 62.7278C275.913 65.0511 272.516 65.6491 269.448 64.3226C267.678 63.556 266.192 62.3221 264.878 60.9077C264.859 61.6482 264.822 62.3885 264.759 63.1217L264.733 63.413C264.602 64.7786 264.349 66.2273 263.323 67.2129C261.661 68.8098 259.252 68.1693 257.337 67.1299C257.339 67.1797 257.339 67.2319 257.339 67.2841C257.856 69.0494 258.376 70.8176 258.896 72.5854L259.008 72.9619C259.385 74.2172 259.8 75.4741 259.914 76.7879C260.132 79.2986 258.467 81.7783 255.691 80.936C254.234 80.4958 253.066 79.265 251.947 78.279L251.242 77.6659C253.066 83.6626 254.333 89.8728 254.45 96.1305C254.459 96.4698 254.166 96.7261 253.846 96.7379C253.094 96.7687 252.286 96.6194 251.532 96.3179C251.488 96.3155 251.446 96.3132 251.401 96.3059C250.111 96.1185 248.915 95.651 247.859 94.9606C248.102 95.7366 248.21 96.5695 248.147 97.4403C248.13 97.6515 247.802 97.7251 247.756 97.4925C247.145 94.4811 243.637 92.2055 240.614 92.7821C237.369 93.4015 234.979 96.2064 234.393 99.3979C233.764 102.827 234.967 106.792 237.194 109.438C238.219 110.658 239.568 111.676 241.169 111.932C241.902 112.049 242.663 112.008 243.373 111.799C243.675 111.709 243.958 111.583 244.246 111.465C244.667 111.294 245.159 111.268 245.555 111.087C246.456 110.682 247.36 111.515 246.903 112.442C246.508 113.252 246.152 113.798 245.492 114.215C246.025 114.87 246.51 115.781 246.69 116.026C247.606 117.269 248.535 118.444 249.58 119.58C250.643 120.734 251.804 121.787 253.028 122.763L253.544 123.172C254.726 124.113 255.754 124.985 256.585 126.334C257.243 127.4 256.393 128.845 255.161 128.828C251.312 128.774 248.512 125.375 246.519 122.407C246.236 121.982 245.969 121.533 245.721 121.073C245.632 121.218 245.531 121.353 245.421 121.477L245.641 122.07C246.292 123.816 243.485 124.958 242.67 123.327C242.075 122.146 241.389 121.021 240.624 119.958C240.172 119.894 239.732 119.619 239.486 119.263C238.863 118.358 238.168 117.445 237.58 116.481C237.252 116.171 236.917 115.871 236.576 115.58C236.477 115.668 236.374 115.755 236.278 115.848C235.847 116.832 235.316 117.732 234.658 118.579L234.515 118.76C233.253 120.358 231.61 121.994 229.575 122.385C228.952 122.504 228.355 121.728 228.905 121.232C230.331 119.946 232.015 119.07 233.328 117.635C233.974 116.927 234.569 116.148 235.079 115.332L235.197 115.143C235.281 115.003 235.367 114.863 235.459 114.721C234.866 114.315 234.272 113.907 233.679 113.498C232.047 114.899 229.921 115.54 228.116 116.701L227.938 116.818C226.306 117.915 224.585 115.49 225.894 114.158C227.337 112.696 228.54 110.953 229.818 109.328C229.219 108.216 228.933 106.901 228.828 105.572C228.786 105.196 228.753 104.819 228.72 104.443C227.802 104.457 226.882 104.142 226.103 103.598L225.808 103.387C224.859 103.691 223.867 103.838 222.914 103.812C220.675 103.745 219.757 101.175 221.158 99.5499C222.588 97.8887 225.089 97.5256 227.07 98.3325C227.135 98.2993 227.201 98.2638 227.264 98.2281C227.17 97.7916 227.191 97.3954 227.299 97.0476L227.266 96.8355C226.831 96.1636 226.545 95.3966 226.435 94.5862C226.351 93.9445 226.367 93.3082 226.515 92.6744C226.564 92.4635 226.667 92.2448 226.744 92.0249C226.585 91.6162 226.489 91.1939 226.461 90.769C226.414 90.7151 226.37 90.6599 226.327 90.6001C225.344 89.2129 225.543 87.5417 226.48 86.4193C226.482 86.3478 226.489 86.2763 226.498 86.2056C226.444 86.0816 226.395 85.9565 226.348 85.83C225.433 84.9035 224.763 83.7884 224.887 82.4066C224.962 81.5935 225.295 80.8617 225.798 80.3147C225.707 80.0495 225.7 79.7421 225.808 79.4856C225.005 77.3391 225.105 74.7536 225.684 72.3529C225.557 71.9874 225.492 71.591 225.506 71.171C225.571 69.389 227.107 67.7516 228.924 67.7728C229.144 67.7747 229.348 67.8036 229.547 67.8454L229.549 67.8031C229.617 67.2681 229.765 66.7738 229.978 66.3303C229.872 66.292 229.776 66.2372 229.69 66.1643C228.526 66.7891 227.292 67.2665 226 67.5917C225.049 67.8311 224.075 66.7454 224.665 65.8488C224.939 65.4328 225.243 65.0593 225.569 64.7181C225.105 64.7207 224.635 64.7522 224.159 64.8136C223.302 64.9253 222.349 64.3391 221.794 63.5466C221.104 64.2205 220.413 64.8919 219.72 65.5635C217.969 67.2698 215.321 66.0145 215.044 63.7648C214.522 63.6249 214.035 63.3876 213.607 63.0483C210.844 64.2537 207.87 64.9157 204.831 65.0415C202.647 65.1318 201.373 62.5782 202.392 60.7748C203.078 59.5645 203.927 58.4778 204.909 57.5332C203.387 58.0007 201.816 58.3377 200.212 58.5538C199.345 58.67 198.121 57.9485 197.772 57.149C196.444 54.0734 196.559 50.8676 198.086 47.8752C198.147 47.7565 198.212 47.6427 198.275 47.5286C198.435 47.1324 198.606 46.7408 198.793 46.3564C196.913 44.3867 196.749 41.4586 197.763 39.0071C197.358 38.3451 197.201 37.5477 197.477 36.8263C198.264 34.7499 199.397 32.8327 200.83 31.1856C200.692 30.9199 200.572 30.6375 200.469 30.3339C199.664 27.8777 200.598 24.9138 202.481 23.2029C203.663 22.1256 205.023 21.4801 206.477 21.0672C207.088 19.9803 207.875 19.0002 208.791 18.1746C208.826 18.0963 208.863 18.018 208.903 17.9396C210.329 15.2391 212.928 13.7915 215.712 13.4569C215.822 12.4008 216.529 11.3925 217.559 11.0649C217.842 10.1513 218.266 9.27803 218.847 8.48544C219.76 7.23724 221.279 6.64872 222.71 7.46741C223.494 7.91592 224.246 8.43086 224.951 9.00038C225.267 8.85144 225.625 8.75504 226.028 8.72431L226.131 8.71801L228.46 8.59935C229.434 8.16509 230.408 7.70946 231.385 7.26572C231.97 6.77923 232.623 6.37345 233.337 6.07208C234.145 5.73275 234.972 5.54054 235.801 5.47646C236.475 5.25577 237.152 5.06118 237.842 4.90931C239.462 4.55336 241.158 4.35402 242.839 4.37062C242.874 3.93333 242.89 3.49077 242.888 3.04301L242.883 2.81868C242.846 1.38301 243.988 0.23685 245.332 0.03276ZM243.698 114.899C243.469 114.948 243.234 114.989 243 115.017C243.071 115.193 243.141 115.368 243.211 115.544C243.398 115.651 243.59 115.753 243.782 115.848C243.726 115.525 243.691 115.2 243.698 114.899ZM231.565 111.276L231.406 111.566C231.382 111.614 231.357 111.661 231.331 111.707C231.666 111.681 232.001 111.688 232.331 111.726V111.691C232.289 111.676 232.244 111.663 232.204 111.643C231.977 111.533 231.764 111.409 231.565 111.276ZM238.123 98.0218C240.212 98.1441 241.982 98.4658 243.883 99.3843L244.047 99.4645C245.726 100.302 248.503 101.849 248.268 104.068C248.203 104.699 247.749 105.364 247.03 105.314C245.063 105.179 243.937 103.185 242.605 101.942C241.261 100.689 239.61 99.4005 237.983 98.5389C237.753 98.4178 237.845 98.0338 238.093 98.0216L238.123 98.0218ZM228.645 68.7884C228.144 68.8051 228.313 69.294 228.57 68.8858C228.591 68.8526 228.617 68.8195 228.645 68.7884ZM255.676 36.1544C250.933 36.2795 246.161 39.0929 242.607 41.9364C239.516 44.4102 236.85 47.3529 234.485 50.5245C233.878 52.1038 233.356 53.7162 232.914 55.3407C232.623 56.4132 232.441 57.4977 232.2 58.5799L232.122 58.9115C231.933 59.2703 231.79 59.6564 231.687 60.0553C232.118 60.4891 232.675 60.7998 233.291 60.9472C233.49 60.9945 233.654 61.0972 233.785 61.2336C234.279 60.4035 234.712 59.5273 234.962 58.5985L234.972 58.5557C235.925 56.9896 236.957 55.4723 238.065 54.0071C241.123 49.961 244.487 46.2734 248.533 43.2051C251.603 40.8794 255.033 39.0569 258.678 37.8729C257.786 37.1494 256.772 36.577 255.676 36.1544Z" fill="black"/>
<path fill-rule="evenodd" clip-rule="evenodd" d="M298.428 124.147C296.688 124.653 294.82 124.698 293.047 124.175C291.439 123.701 289.786 122.657 288.603 121.276C287.55 120.049 286.868 118.558 286.896 116.966C286.899 116.785 286.964 116.633 287.063 116.515C287.17 116.388 287.32 116.301 287.479 116.263C287.646 116.225 287.819 116.238 287.969 116.306C288.102 116.367 288.217 116.472 288.289 116.624C288.472 116.864 288.652 117.101 288.835 117.331C290.298 119.146 291.715 120.502 293.913 120.988C295.108 121.252 296.299 121.135 297.393 120.733C298.566 120.301 299.624 119.543 300.453 118.573C300.827 118.135 301.27 117.956 301.703 117.953C302.193 117.949 302.677 118.178 303.042 118.544C303.401 118.904 303.642 119.392 303.663 119.904C303.684 120.352 303.536 120.821 303.15 121.239C301.872 122.617 300.219 123.626 298.428 124.147ZM298.374 101.415C300.158 102.504 302.876 105.044 300.956 107.745C298.699 110.125 295.447 107.396 293.843 106.161C292.359 105.204 290.689 107.665 292.066 108.782C303.647 117.395 308.346 101.7 299.278 100.134C298.278 99.9619 297.908 101.078 298.374 101.415ZM281.689 96.6225C281.115 96.254 280.441 96.1277 279.694 96.4691C279.111 96.736 278.086 97.6256 277.374 98.7948C276.885 99.5948 276.54 100.533 276.611 101.511C276.629 101.738 276.545 101.905 276.414 102.029C276.309 102.127 276.159 102.199 275.983 102.221C275.833 102.24 275.665 102.223 275.529 102.18C275.269 102.099 275.131 101.93 275.079 101.792C274.581 100.46 274.796 98.974 275.356 97.6331C276.11 95.8236 277.482 94.3081 278.378 93.8194C279.917 92.983 281.729 92.9444 283.27 93.7966C284.581 94.5218 285.398 95.6929 286.213 96.8865C286.386 97.1403 286.559 97.3921 286.737 97.6395C287.093 98.1354 287.128 98.6271 286.99 99.0488C286.838 99.516 286.447 99.9101 285.96 100.117C285.51 100.307 284.988 100.334 284.525 100.138C284.136 99.9727 283.778 99.6501 283.551 99.1026C283.169 98.1806 282.532 97.1633 281.689 96.6225ZM310.804 98.6737C310.413 98.8792 310.104 98.9411 309.669 98.8101C309.427 98.7374 309.191 98.598 309.004 98.4108C308.819 98.2253 308.685 97.9946 308.634 97.7385C308.507 97.1069 308.163 96.5155 307.674 96.1298C307.255 95.8004 306.725 95.6256 306.138 95.7242C305.506 95.8305 304.901 96.2384 304.487 96.7193C304.347 96.8802 304.239 97.0631 304.129 97.2447C303.925 97.584 303.726 97.8996 303.443 98.1491C303.335 98.2438 303.174 98.3095 303.019 98.3095C302.956 98.3095 302.89 98.2991 302.829 98.2801C302.2 97.6444 302.078 97.1626 302.099 96.6843C302.12 96.183 302.317 95.6753 302.635 95.2017C303.38 94.0908 304.796 93.1798 305.751 92.9733C307.06 92.6909 308.36 93.03 309.402 93.7644C310.474 94.5199 311.268 95.6931 311.516 97.0152C311.577 97.3336 311.551 97.6771 311.429 97.9751C311.312 98.2664 311.106 98.5157 310.804 98.6737ZM284.576 84.7768C283.789 85.5455 282.86 85.6647 281.921 85.7706C281.399 85.8301 280.98 85.8778 280.57 85.9709C279.441 86.2268 278.327 86.6122 277.308 87.1671C276.245 87.7473 275.086 88.4469 274.253 89.3433C274.054 89.5565 273.869 89.7802 273.682 90.0045C273.511 90.2091 273.347 90.4059 273.174 90.5959C272.975 90.8139 272.785 91.0425 272.598 91.2703C272.48 91.4627 272.457 91.51 272.434 91.5594C272.399 91.6334 272.359 91.7162 272.312 91.8051C272.246 91.9267 272.171 92.0598 272.094 92.1806C271.963 92.4014 271.893 92.4621 271.832 92.4894C271.731 92.5343 271.635 92.5566 271.544 92.5447C271.457 92.5334 271.375 92.4913 271.293 92.4228C270.891 92.0805 270.771 91.5189 270.783 90.9226C270.802 90.0179 271.134 89.0162 271.441 88.4003C272.153 86.9694 273.141 85.482 274.328 84.414C275.681 83.1952 277.166 82.2722 278.868 81.6363C279.926 81.241 281.151 80.8782 282.303 80.924C283.131 80.957 283.925 81.2048 284.578 81.8235C284.981 82.2033 285.173 82.7437 285.173 83.2836C285.173 83.8343 284.972 84.3881 284.576 84.7768ZM312.401 91.8164C312.352 91.8987 312.284 91.9554 312.207 91.9895C312.125 92.025 312.036 92.0353 311.949 92.0207C311.862 92.0061 311.78 91.9669 311.717 91.9071C311.654 91.8498 311.607 91.7736 311.586 91.6805C311.064 89.3797 310.053 87.6678 307.891 86.564C306.828 86.021 305.606 85.676 304.447 85.4009C304.112 85.321 303.757 85.269 303.398 85.2165C302.277 85.0522 301.148 84.8638 300.418 83.9531C299.975 83.4044 299.79 82.7027 299.896 82.0612C299.994 81.4571 300.345 80.9031 300.984 80.5713C302.574 79.7452 304.55 80.5558 306.156 81.2462C306.276 81.2975 306.393 81.3478 306.508 81.3962C308.076 82.0622 309.509 82.9412 310.687 84.1983C311.621 85.1958 312.488 86.6703 312.836 88.187C313.124 89.4488 313.056 90.737 312.401 91.8164Z" fill="black"/>
</svg>
